<svg width="84" height="42" viewBox="0 0 84 42" fill="none" xmlns="http://www.w3.org/2000/svg">
<path d="M57.747 3.12893L57.7287 3.10096L57.7103 3.07299L57.6826 3.05434L57.6549 3.0357L57.6366 3.00773L57.6182 2.97976L57.5905 2.96111L57.5628 2.94247L57.5445 2.9145L57.5261 2.88653L57.4984 2.86788L57.4707 2.84923L57.4524 2.82126L57.4339 2.79329L57.4063 2.77465L57.3786 2.756L57.3603 2.72803L57.3418 2.70006L57.3142 2.68141L57.2865 2.66277L57.2682 2.6348L57.2497 2.60683L57.2221 2.58818L57.1944 2.56954L57.1761 2.54156H57.5445L57.7287 2.58818L57.9129 2.6348L61.0445 3.52051C63.1321 4.11095 65.0971 4.77915 66.9392 5.52501C68.7813 6.27087 70.3717 7.00741 71.7103 7.73462C73.0427 8.46799 74.2524 9.21385 75.3391 9.9722C76.4321 10.7367 77.4145 11.5136 78.2865 12.303C79.1645 13.0986 79.9567 13.9626 80.6629 14.8949C81.369 15.8272 81.9216 16.6973 82.3208 17.5054C82.7199 18.3134 83.0116 19.1214 83.1958 19.9294C83.38 20.7375 83.4567 21.5454 83.426 22.3535C83.3953 23.1614 83.2571 24.0005 83.0116 24.8708C82.7659 25.741 82.4282 26.611 81.9984 27.4813C81.5686 28.3515 81.0313 29.2216 80.3866 30.0918C79.7418 30.962 79.0603 31.7638 78.3418 32.4972C77.6172 33.2244 76.6563 34.0231 75.4589 34.8933C74.2616 35.7634 73.0028 36.5559 71.6826 37.2707C70.3624 37.9855 68.8887 38.6536 67.2616 39.2752C65.6344 39.8968 64.6826 40.2541 64.4063 40.3474C64.13 40.4406 63.9304 40.5028 63.8076 40.5338L63.6234 40.5805L63.4853 40.6271L63.3471 40.6737L63.2089 40.7203L63.0708 40.7669L62.9787 40.7949L62.8866 40.8135V40.6271L62.9787 40.6084L63.0708 40.5805L63.0891 40.5525L63.1168 40.5338L63.1445 40.5152L63.1629 40.4872L63.1812 40.4593L63.2089 40.4406L63.2366 40.422L63.255 40.394L63.2733 40.366L63.301 40.3474L63.3287 40.3287L63.3471 40.3008L63.3654 40.2728L63.3932 40.2541L63.4208 40.2355C63.433 40.2168 63.476 40.1672 63.5496 40.0863C63.6295 40.0117 64.0593 39.502 64.8391 38.5573C65.6251 37.6063 66.2698 36.643 66.7733 35.6671C67.2829 34.6851 67.63 33.7589 67.8142 32.8888C67.9984 32.0185 68.0598 31.2727 67.9984 30.6512C67.937 30.0297 67.7988 29.4858 67.5839 29.0196C67.369 28.5534 67.0987 28.1712 66.7733 27.8729C66.454 27.5807 66.0642 27.3414 65.6037 27.155C65.1432 26.9685 64.5445 26.8753 63.8076 26.8753C63.0708 26.8753 62.2418 27.0306 61.3208 27.3414C60.3997 27.6523 59.4633 28.1028 58.5116 28.6933C57.5598 29.2838 56.6848 29.9208 55.8866 30.6046L54.6892 31.6301L54.6708 31.6581L54.6432 31.6767L54.6154 31.6954L54.5971 31.7234L54.4589 31.7513L54.3208 31.77L54.3024 31.6767C54.2839 31.6146 54.0598 31.2727 53.63 30.6512C53.2001 30.0297 52.7796 29.5697 52.3682 29.2713C51.9506 28.9792 51.5423 28.8177 51.1432 28.7865C50.744 28.7554 50.2988 28.8643 49.8076 29.1128C49.3163 29.3614 48.8866 29.6722 48.5182 30.0452C48.1497 30.4181 47.6278 31.0862 46.9524 32.0497C46.2769 33.013 45.3191 34.654 44.0787 36.9724L42.2089 40.4406L42.1629 40.5338L42.1168 40.6271L42.0708 40.7203L42.0247 40.8135L41.9787 40.9068L41.9326 41L41.8866 40.9068L41.8405 40.8135L41.7945 40.7203L41.7484 40.6271L41.7207 40.6084L41.7024 40.5805L41.6839 40.5525L41.6563 40.5338L41.6103 40.4406C41.5795 40.3784 41.119 39.4927 40.2287 37.7835C39.3383 36.0742 38.5247 34.6136 37.7879 33.4015C37.0511 32.1895 36.3849 31.2479 35.7892 30.5766C35.1875 29.9115 34.6716 29.4546 34.2418 29.2061C33.812 28.9575 33.4129 28.8177 33.0445 28.7865C32.6761 28.7554 32.3997 28.7711 32.2155 28.8331C32.0313 28.8952 31.7396 29.0817 31.3405 29.3925C30.9413 29.7034 30.5422 30.1789 30.1432 30.819L29.5445 31.77L29.4063 31.7513L29.2682 31.7234L29.2497 31.6954L29.2221 31.6767L29.1944 31.6581L29.1761 31.6301L27.9787 30.6046C27.1804 29.9208 26.3054 29.2838 25.3537 28.6933C24.4019 28.1028 23.5423 27.6677 22.7747 27.388C22.0071 27.1083 21.3011 26.9374 20.6563 26.8753C20.0116 26.8132 19.4129 26.8441 18.8603 26.9685C18.3076 27.0929 17.8624 27.2575 17.5247 27.4626C17.187 27.6616 17.0182 27.7921 17.0182 27.8542C17.0182 27.9163 16.9874 27.9474 16.9261 27.9474C16.8646 27.9474 16.705 28.1805 16.4471 28.6467C16.183 29.1128 16.005 29.5635 15.9129 29.9986C15.8208 30.4336 15.8054 31.0241 15.8668 31.77C15.9282 32.5158 16.1124 33.3239 16.4195 34.194C16.7265 35.0642 17.1716 35.9499 17.755 36.8512C18.3383 37.7524 18.9278 38.5387 19.5234 39.2099C20.1251 39.8751 20.4321 40.2168 20.4445 40.2355L20.4721 40.2541L20.4997 40.2728L20.5182 40.3008L20.5366 40.3287L20.5642 40.3474L20.5918 40.366L20.6103 40.394L20.6287 40.422L20.6563 40.4406L20.6839 40.4593L20.7024 40.4872L20.7208 40.5152L20.7484 40.5338L20.7761 40.5525L20.7945 40.5805L20.8866 40.6084L20.9787 40.6271V40.8135L20.8866 40.7949L20.7945 40.7669L20.6563 40.7203L20.5182 40.6737L20.38 40.6271L20.2418 40.5805L20.1037 40.5338C20.0116 40.5028 19.6585 40.394 19.0445 40.2075C18.4304 40.0211 17.3405 39.6015 15.7747 38.9489C14.209 38.2963 12.812 37.6281 11.584 36.9444C10.3558 36.2607 9.23527 35.5459 8.22211 34.8C7.20895 34.0542 6.34003 33.3176 5.61553 32.5904C4.89509 31.8548 4.21846 31.0765 3.58921 30.2596C2.96578 29.4377 2.41122 28.5645 1.93132 27.6491C1.45845 26.7293 1.09924 25.8186 0.853689 24.9174C0.608044 24.0162 0.469887 23.146 0.439215 22.3069C0.408452 21.4678 0.485268 20.6597 0.669479 19.8828C0.853689 19.1059 1.16068 18.2823 1.59053 17.4122C2.02029 16.542 2.59439 15.6469 3.3129 14.7271C4.0374 13.8134 4.87556 12.937 5.82737 12.0979C6.7791 11.2588 7.7462 10.4974 8.72869 9.81371C9.71108 9.13003 10.8932 8.41522 12.2747 7.66936C13.6563 6.9235 15.2835 6.17764 17.1563 5.43177C19.0291 4.68591 20.9633 4.03329 22.959 3.47389L25.9524 2.6348L26.1366 2.58818L26.3208 2.54156H26.6892L26.6708 2.56954L26.6432 2.58818L26.6154 2.60683L26.5971 2.6348L26.5787 2.66277L26.5511 2.68141L26.5233 2.70006L26.505 2.72803L26.4866 2.756L26.4589 2.77465L26.4312 2.79329L26.4129 2.82126L26.3945 2.84923L26.3668 2.86788L26.3391 2.88653L26.3208 2.9145L26.3024 2.94247L26.2747 2.96111L26.247 2.97976L26.2287 3.00773L26.2103 3.0357L26.1826 3.05434L26.1549 3.07299L26.1366 3.10096L25.1971 4.24772C24.5646 5.00607 24.0795 5.72704 23.7418 6.41072C23.4041 7.09439 23.1738 7.68493 23.0511 8.18214C22.9282 8.67935 22.8821 9.19212 22.9129 9.72047C22.9436 10.2488 23.0724 10.7678 23.2996 11.2775C23.5329 11.7933 23.7879 12.2222 24.0642 12.5641C24.3405 12.906 24.7857 13.2789 25.3997 13.6829C26.0137 14.0868 26.7353 14.4287 27.5642 14.7084C28.3932 14.9881 29.3603 15.128 30.4655 15.128C31.5708 15.128 32.3383 15.0192 32.7682 14.8016C33.1979 14.5841 33.5909 14.3293 33.9471 14.0371C34.2971 13.7388 34.687 13.2633 35.1168 12.6107C35.5466 11.9581 35.915 11.2278 36.2221 10.4197C36.5291 9.61167 36.7594 8.02672 36.9129 5.66486C37.0663 3.303 37.1953 1.84847 37.2996 1.30157C37.4102 0.760823 37.7049 0.947288 38.1839 1.86097C38.6567 2.7808 38.9454 3.4117 39.0496 3.75359C39.1602 4.09547 39.5071 4.21043 40.0905 4.09855C40.6738 3.99282 41.3953 3.95553 42.255 3.98667C43.1146 4.01772 43.7287 4.07375 44.0971 4.15449C44.4655 4.22907 44.7971 3.89344 45.0918 3.14758C45.3804 2.40172 45.6782 1.76466 45.9853 1.23631C46.2922 0.70796 46.5379 1.31397 46.7221 3.05434C46.9063 4.79472 47.0291 6.2553 47.0905 7.43628C47.1519 8.61725 47.3361 9.61167 47.6432 10.4197C47.9501 11.2278 48.2971 11.9176 48.6839 12.4895C49.0646 13.0675 49.4238 13.5274 49.7616 13.8693C50.0992 14.2112 50.5137 14.5064 51.005 14.755C51.4962 15.0037 52.2945 15.128 53.3997 15.128C54.505 15.128 55.4721 14.9881 56.3011 14.7084C57.13 14.4287 57.8054 14.118 58.3274 13.7761C58.8492 13.4342 59.3005 13.0551 59.6812 12.6387C60.0681 12.216 60.369 11.7405 60.5839 11.2122C60.7988 10.6838 60.9063 10.0934 60.9063 9.44077C60.9063 8.78815 60.7988 8.15109 60.5839 7.52951C60.369 6.90793 60.0466 6.2553 59.6168 5.57162C59.187 4.88795 58.7725 4.31298 58.3734 3.84682C57.9742 3.38066 57.7655 3.14142 57.747 3.12893Z" fill="#ED513F" stroke="#ED513F" stroke-width="0.406023"/>
</svg>
