<svg width="151" height="22" viewBox="0 0 151 22" fill="none" xmlns="http://www.w3.org/2000/svg">
<path fill-rule="evenodd" clip-rule="evenodd" d="M82.8868 10.2158C82.8868 10.2158 81.4274 9.31183 80.525 8.96208C80.525 8.96208 77.7317 7.66526 77.1775 7.04827C77.1775 7.04827 76.0888 6.02057 76.7263 4.8269C76.7263 4.8269 76.9931 4.04581 78.1436 4.04581C78.1436 4.04581 79.6413 4.12833 79.6413 5.36138V7.10078H85.0089L84.9996 4.53903C84.9996 4.53903 85.4124 0.343846 78.6771 0.159123C78.6771 0.159123 73.3797 -0.189699 71.8605 2.66835C71.8605 2.66835 71.2642 3.30598 71.2642 5.52641V7.13078C71.2642 7.13078 71.2033 8.98177 72.1469 10.1745C72.1469 10.1745 72.6805 10.9565 73.9948 11.8192C73.9948 11.8192 76.6636 13.2585 78.2653 14.0828C78.2653 14.0828 79.8819 15.0073 79.6694 16.4785C79.6694 16.4785 79.5374 17.9891 77.976 17.9272C77.976 17.9272 76.5484 17.8635 76.5484 16.3819V14.6435H70.8289V17.1687C70.8289 17.1687 70.6688 21.9977 78.0181 21.9977C78.0181 21.9977 85.0407 22.1403 85.3684 17.0421V14.9857C85.3674 14.9857 85.6164 11.8614 82.8868 10.2158ZM55.4066 0.760176L53.6093 12.0424H53.189L51.4722 0.861447H42.5062L42.0569 21.2926H47.3655L47.4292 5.89867H47.8467L50.6606 21.2898H56.2454L59.0247 5.9043H59.3944L59.5227 21.2926H64.8594L64.2846 0.760176H55.4066ZM23.8058 0.845508L20.2739 21.2691H25.9887L28.0809 5.43358H28.5508L30.6421 21.2691H36.356L32.8251 0.845508H23.8058ZM143.722 9.93445V12.9472H145.188V16.1813C145.188 17.7622 143.839 17.7913 143.839 17.7913C142.199 17.7913 142.261 16.2891 142.261 16.2891V5.10258C142.261 3.95017 143.716 3.88828 143.716 3.88828C145.113 3.88828 145.122 5.26292 145.122 5.26292V6.96387H150.503C150.679 3.64354 150.018 2.83996 150.018 2.83996C148.683 -0.1625 143.634 0.00159324 143.634 0.00159324C135.875 0.00159324 136.736 5.96525 136.736 5.96525V16.7814C136.903 22.3747 144.549 21.8064 144.678 21.8018C148.079 21.4248 149.106 20.3418 149.106 20.3418C150.051 19.6385 150.294 18.6643 150.294 18.6643C150.565 18.097 150.632 16.2891 150.632 16.2891V9.93445H143.722ZM125.887 13.2585H125.652L120.192 0.765799H113.659V21.2945H118.976L118.658 8.80361H118.896L124.553 21.2945H130.887V0.763924H125.503L125.887 13.2585ZM100.68 16.1794C100.68 16.1794 100.757 17.8644 99.1974 17.8644C99.1974 17.8644 97.5573 17.9526 97.5573 16.2216L97.5405 0.777989H91.7086V16.0988C91.7086 16.0988 91.1104 21.8974 99.2798 21.8974C99.2798 21.8974 106.379 21.9818 106.379 16.3651V0.778926H100.68V16.1794ZM12.6877 10.2158C12.6877 10.2158 11.2302 9.31183 10.3269 8.96301C10.3269 8.96301 7.53541 7.66714 6.98124 7.04921C6.98124 7.04921 5.89255 6.01963 6.53097 4.82877C6.53097 4.82877 6.79682 4.04768 7.94635 4.04768C7.94635 4.04768 9.44505 4.12926 9.44505 5.36231V7.10172H14.8145L14.8042 4.53903C14.8042 4.53903 15.2142 0.343846 8.4818 0.16006C8.4818 0.16006 7.97444 0.127239 7.23024 0.164746C7.23024 0.164746 3.15165 0.384164 1.69321 2.62522C1.68478 2.6421 1.67261 2.6543 1.66419 2.6693C1.66419 2.6693 1.06883 3.30598 1.06883 5.52735V7.13172C1.06883 7.13172 1.00704 8.98271 1.95157 10.1754C1.95157 10.1754 2.48515 10.9575 3.79943 11.8201C3.79943 11.8201 6.46731 13.2595 8.06898 14.0837C8.06898 14.0837 9.6875 15.0064 9.47313 16.4795C9.47313 16.4795 9.34114 17.9901 7.78066 17.9282C7.78066 17.9282 6.35311 17.8644 6.35311 16.3829V14.6435H0.632603V17.1705C0.632603 17.1705 0.472531 21.9996 7.82185 21.9996C7.82185 21.9996 14.8426 22.1421 15.173 17.044V14.9895C15.173 14.9876 15.4183 11.8614 12.6877 10.2158Z" fill="#ED513F"/>
</svg>
