<svg width="192" height="40" viewBox="0 0 192 40" fill="none" xmlns="http://www.w3.org/2000/svg">
<path d="M19.6101 18.8889H0.721191V0H19.6101V18.8889Z" fill="#ED513F"/>
<path d="M40.7214 18.8889H21.8325V0H40.7214V18.8889Z" fill="#ED513F"/>
<path d="M191.832 17.6371V14.2754H187.668V9.04922L187.528 9.09249L183.616 10.2922L183.539 10.3157V14.2756H177.366V12.0696C177.366 11.0424 177.595 10.2563 178.046 9.73211C178.495 9.21417 179.136 8.95085 179.954 8.95085C180.542 8.95085 181.151 9.08972 181.764 9.36358L181.918 9.43236V5.89202L181.845 5.86539C181.274 5.6594 180.496 5.55566 179.532 5.55566C178.318 5.55566 177.214 5.82064 176.252 6.3458C175.289 6.87169 174.531 7.62244 174 8.57696C173.471 9.53037 173.203 10.6315 173.203 11.8501V14.2754H170.303V17.6371H173.203V31.7994H177.366V17.6371H183.539V26.637C183.539 30.3436 185.283 32.222 188.723 32.222C189.288 32.222 189.883 32.1556 190.49 32.0256C191.109 31.8921 191.53 31.7588 191.778 31.6164L191.832 31.5838V28.191L191.663 28.3033C191.437 28.4542 191.156 28.5775 190.826 28.6692C190.495 28.7626 190.218 28.8094 190.004 28.8094C189.198 28.8094 188.602 28.5917 188.232 28.1622C187.858 27.7288 187.668 26.9708 187.668 25.9105V17.6371H191.832ZM161.007 28.8099C159.497 28.8099 158.305 28.3077 157.466 27.3184C156.621 26.3242 156.193 24.9066 156.193 23.1056C156.193 21.2474 156.621 19.793 157.466 18.7812C158.306 17.776 159.486 17.2658 160.974 17.2658C162.417 17.2658 163.566 17.7531 164.389 18.7148C165.216 19.6815 165.636 21.1242 165.636 23.004C165.636 24.907 165.241 26.3687 164.463 27.3465C163.69 28.317 162.527 28.8099 161.007 28.8099ZM161.193 13.8533C158.31 13.8533 156.021 14.7 154.388 16.3699C152.757 18.0401 151.93 20.3513 151.93 23.24C151.93 25.9837 152.737 28.1907 154.33 29.7985C155.922 31.4069 158.09 32.2216 160.771 32.2216C163.565 32.2216 165.809 31.363 167.441 29.67C169.072 27.9788 169.899 25.6894 169.899 22.8681C169.899 20.0815 169.123 17.8581 167.593 16.261C166.062 14.6632 163.908 13.8533 161.193 13.8533ZM145.218 13.8533C143.257 13.8533 141.635 14.356 140.396 15.3474C139.15 16.3446 138.518 17.6525 138.518 19.2352C138.518 20.0578 138.654 20.7886 138.923 21.4084C139.193 22.0303 139.611 22.5778 140.167 23.0373C140.718 23.4931 141.569 23.9706 142.697 24.4564C143.645 24.8474 144.352 25.1783 144.801 25.439C145.24 25.6945 145.552 25.9514 145.728 26.2016C145.899 26.4464 145.985 26.7815 145.985 27.1949C145.985 28.3723 145.106 28.9451 143.296 28.9451C142.625 28.9451 141.859 28.8046 141.02 28.5276C140.188 28.2548 139.402 27.8553 138.69 27.343L138.517 27.2188V31.2364L138.581 31.266C139.17 31.5385 139.912 31.7684 140.787 31.9492C141.661 32.1302 142.455 32.2223 143.144 32.2223C145.272 32.2223 146.985 31.7171 148.236 30.7199C149.494 29.7158 150.132 28.3771 150.132 26.7397C150.132 25.5584 149.788 24.5455 149.112 23.7285C148.44 22.9182 147.273 22.1743 145.647 21.5168C144.351 20.9953 143.52 20.5625 143.178 20.2302C142.848 19.9092 142.68 19.4552 142.68 18.8803C142.68 18.3707 142.887 17.9624 143.312 17.6318C143.74 17.2995 144.336 17.1305 145.083 17.1305C145.777 17.1305 146.486 17.2403 147.192 17.4556C147.897 17.6708 148.517 17.9591 149.034 18.3117L149.204 18.4282V14.6171L149.139 14.589C148.662 14.384 148.033 14.2085 147.269 14.0661C146.508 13.9246 145.818 13.8533 145.218 13.8533ZM127.666 28.8099C126.155 28.8099 124.964 28.3077 124.124 27.3184C123.28 26.3242 122.852 24.907 122.852 23.1056C122.852 21.2474 123.28 19.793 124.125 18.7812C124.965 17.776 126.144 17.2658 127.632 17.2658C129.075 17.2658 130.224 17.7531 131.047 18.7148C131.875 19.6815 132.294 21.1242 132.294 23.004C132.294 24.907 131.899 26.3687 131.121 27.3465C130.348 28.317 129.186 28.8099 127.666 28.8099ZM127.851 13.8533C124.968 13.8533 122.678 14.7 121.047 16.3699C119.416 18.0401 118.588 20.3513 118.588 23.24C118.588 25.9848 119.396 28.1907 120.988 29.7985C122.581 31.4069 124.748 32.2216 127.43 32.2216C130.223 32.2216 132.468 31.363 134.1 29.67C135.731 27.9788 136.558 25.6894 136.558 22.8681C136.558 20.0815 135.782 17.8581 134.251 16.261C132.72 14.6632 130.566 13.8533 127.851 13.8533ZM112.269 17.3102V14.2754H108.157V31.7991H112.269V22.835C112.269 21.3108 112.614 20.0586 113.294 19.1127C113.966 18.1782 114.861 17.7046 115.953 17.7046C116.324 17.7046 116.74 17.7658 117.19 17.887C117.636 18.0073 117.958 18.1381 118.149 18.2756L118.322 18.4012V14.2455L118.255 14.2168C117.872 14.0537 117.33 13.9714 116.645 13.9714C115.612 13.9714 114.687 14.3043 113.895 14.9596C113.2 15.5356 112.697 16.3254 112.313 17.3102H112.269ZM100.794 13.8533C98.9071 13.8533 97.2245 14.2588 95.7933 15.0582C94.3591 15.8594 93.25 17.0033 92.4954 18.4578C91.7441 19.9088 91.3626 21.6037 91.3626 23.4939C91.3626 25.1496 91.7324 26.669 92.4634 28.0082C93.1948 29.3495 94.23 30.3989 95.5404 31.1267C96.8489 31.8536 98.3613 32.2221 100.036 32.2221C101.99 32.2221 103.658 31.8305 104.996 31.0581L105.05 31.0271V27.2506L104.877 27.3771C104.271 27.8196 103.594 28.1727 102.866 28.4272C102.139 28.6814 101.476 28.8099 100.895 28.8099C99.2817 28.8099 97.9865 28.3038 97.0463 27.306C96.1041 26.307 95.6263 24.904 95.6263 23.1387C95.6263 21.3622 96.1245 19.9232 97.1064 18.8614C98.0853 17.8028 99.383 17.2658 100.963 17.2658C102.315 17.2658 103.632 17.7246 104.878 18.6307L105.05 18.7562V14.7771L104.994 14.7457C104.525 14.4825 103.886 14.2652 103.092 14.1005C102.301 13.9361 101.528 13.8533 100.794 13.8533ZM88.5306 14.2756H84.4187V31.7991H88.5306V14.2756ZM86.5167 6.81048C85.84 6.81048 85.2497 7.04144 84.7648 7.4991C84.2778 7.95805 84.0308 8.53591 84.0308 9.21786C84.0308 9.8891 84.2748 10.4564 84.7572 10.9032C85.2364 11.3486 85.8285 11.5744 86.5169 11.5744C87.2051 11.5744 87.7994 11.3486 88.2844 10.9039C88.7725 10.4564 89.02 9.88928 89.02 9.21786C89.02 8.55976 88.7791 7.98782 88.3045 7.51759C87.8303 7.04828 87.2285 6.81048 86.5167 6.81048ZM76.2572 12.9827V31.7991H80.4536V7.34692H74.6456L67.2633 25.5093L60.0992 7.34692H54.0547V31.7989H57.9982V12.9808H58.1336L65.6987 31.7991H68.6748L76.1218 12.9827H76.2572Z" fill="#ED513F"/>
<path d="M19.6101 40H0.721191V21.1111H19.6101V40Z" fill="#ED513F"/>
<path d="M40.7214 40H21.8325V21.1111H40.7214V40Z" fill="#ED513F"/>
</svg>
