<svg width="80" height="28" viewBox="0 0 80 28" fill="none" xmlns="http://www.w3.org/2000/svg">
<path fill-rule="evenodd" clip-rule="evenodd" d="M10.3519 1.24162C5.21121 7.1869 0.282248 14.5596 0.232823 20.0704C0.213573 22.1439 0.885752 23.954 2.49804 25.325C4.81841 27.2996 7.37498 27.9959 9.91905 28C13.6368 28.0051 17.3286 26.528 20.2192 25.3891C25.0873 23.4719 78.8995 0.458755 78.8995 0.458755C79.4187 0.202581 79.3215 -0.116609 78.6716 0.0427308C78.4094 0.107287 20.0886 15.6719 20.0886 15.6719C18.9839 15.9796 17.8424 16.1405 16.6944 16.1504C12.2124 16.1765 8.22404 13.7265 8.2563 8.56358C8.26879 6.54339 8.89674 4.10718 10.3519 1.24162Z" fill="#ED513F"/>
</svg>
