<svg width="43" height="52" viewBox="0 0 43 52" fill="none" xmlns="http://www.w3.org/2000/svg">
<path d="M35.1093 27.626C35.1818 35.4953 41.9572 38.114 42.0322 38.1473C41.9749 38.3319 40.9496 41.8791 38.4627 45.5431C36.3127 48.7109 34.0815 51.867 30.5665 51.9323C27.1127 51.9965 26.0021 49.8677 22.0535 49.8677C18.106 49.8677 16.8721 51.867 13.6027 51.9966C10.2099 52.1261 7.62616 48.5712 5.4585 45.415C1.02895 38.959 -2.35613 27.172 2.18918 19.2156C4.4472 15.2644 8.48244 12.7623 12.8623 12.6982C16.194 12.6341 19.3386 14.9578 21.3754 14.9578C23.4109 14.9578 27.2323 12.1633 31.2496 12.5737C32.9315 12.6443 37.6524 13.2586 40.6837 17.7318C40.4395 17.8845 35.0508 21.047 35.1093 27.626ZM28.6183 8.30258C30.4196 6.10451 31.632 3.0446 31.3012 0C28.7048 0.105201 25.5652 1.74421 23.7029 3.94108C22.0338 5.8865 20.5722 9.00027 20.9665 11.9846C23.8605 12.2103 26.817 10.502 28.6183 8.30258Z" fill="#ED513F"/>
</svg>
