<svg width="89" height="89" viewBox="0 0 89 89" fill="none" xmlns="http://www.w3.org/2000/svg">
<rect width="89" height="89" rx="16" fill="#ED513F"/>
<path d="M22.5976 44.4653H28.2018C29.8684 44.4653 31.2195 45.8163 31.2195 47.4829V53.0871H22.5976V44.4653Z" fill="#181818"/>
<path d="M22.5976 35.8437H31.2195V41.448C31.2195 43.1146 29.8684 44.4656 28.2018 44.4656H22.5976V35.8437Z" fill="#181818"/>
<path d="M31.2194 35.8437H36.8237C38.4903 35.8437 39.8413 37.1948 39.8413 38.8614V44.4656H34.2371C32.5705 44.4656 31.2194 43.1146 31.2194 41.448V35.8437Z" fill="#181818"/>
<path d="M39.8414 44.4653H48.4633V50.0695C48.4633 51.7361 47.1122 53.0871 45.4456 53.0871H42.8591C41.1925 53.0871 39.8414 51.7361 39.8414 50.0695V44.4653Z" fill="#181818"/>
<path d="M48.4632 38.8614C48.4632 37.1948 49.8142 35.8437 51.4808 35.8437H57.085V41.448C57.085 43.1146 55.734 44.4656 54.0674 44.4656H48.4632V38.8614Z" fill="#181818"/>
<path d="M57.0851 30.0239C57.0851 28.4763 58.3397 27.2218 59.8872 27.2218H62.6893C64.3559 27.2218 65.707 28.5728 65.707 30.2394V35.8437H57.0851V30.0239Z" fill="#181818"/>
<path d="M57.0851 35.8437H65.707V44.4656H61.3961C59.0152 44.4656 57.0851 42.5355 57.0851 40.1547V35.8437Z" fill="#181818"/>
<path d="M57.0851 48.7762C57.0851 46.3953 59.0152 44.4653 61.3961 44.4653H65.707V53.0871H57.0851V48.7762Z" fill="#181818"/>
<path d="M57.0851 53.0872H65.707V58.6914C65.707 60.358 64.3559 61.7091 62.6893 61.7091H60.1028C58.4362 61.7091 57.0851 60.358 57.0851 58.6914V53.0872Z" fill="#181818"/>
<path d="M22.5977 30.2392C22.5977 28.5726 23.9487 27.2216 25.6153 27.2216H28.2019C29.8685 27.2216 31.2195 28.5726 31.2195 30.2392V35.8434H22.5977V30.2392Z" fill="#181818"/>
<path d="M22.5976 53.0872H31.2195V58.6914C31.2195 60.358 29.8684 61.7091 28.2018 61.7091H25.6153C23.9487 61.7091 22.5976 60.358 22.5976 58.6914V53.0872Z" fill="#181818"/>
<g clip-path="url(#clip0_4_2)">
<path fill-rule="evenodd" clip-rule="evenodd" d="M31.2194 32.8261L31.2194 35.8437L34.2371 35.8437L37.2548 35.8437L37.2548 32.8261L37.2548 29.8084L34.2371 29.8084L31.2194 29.8084L31.2194 32.8261ZM31.2194 32.8261C31.2194 31.1595 32.5705 29.8084 34.2371 29.8084C35.9037 29.8084 37.2548 31.1595 37.2548 32.8261C37.2548 34.4927 35.9037 35.8437 34.2371 35.8437C32.5705 35.8437 31.2194 34.4927 31.2194 32.8261Z" fill="#181818"/>
</g>
<g clip-path="url(#clip1_4_2)">
<path fill-rule="evenodd" clip-rule="evenodd" d="M54.0675 35.8437L57.0851 35.8437L57.0851 32.8261L57.0851 29.8084L54.0675 29.8084L51.0498 29.8084L51.0498 32.8261L51.0498 35.8437L54.0675 35.8437ZM54.0675 35.8437C52.4009 35.8437 51.0498 34.4927 51.0498 32.8261C51.0498 31.1595 52.4009 29.8084 54.0675 29.8084C55.7341 29.8084 57.0851 31.1595 57.0851 32.8261C57.0851 34.4927 55.7341 35.8437 54.0675 35.8437Z" fill="#181818"/>
</g>
<g clip-path="url(#clip2_4_2)">
<path fill-rule="evenodd" clip-rule="evenodd" d="M45.4455 44.4653L48.4632 44.4653L48.4631 41.4476L48.4631 38.4299L45.4455 38.4299L42.4278 38.4299L42.4278 41.4476L42.4278 44.4653L45.4455 44.4653ZM45.4455 44.4653C43.7789 44.4653 42.4278 43.1142 42.4278 41.4476C42.4278 39.781 43.7789 38.4299 45.4455 38.4299C47.1121 38.4299 48.4631 39.781 48.4631 41.4476C48.4631 43.1142 47.1121 44.4653 45.4455 44.4653Z" fill="#181818"/>
</g>
<g clip-path="url(#clip3_4_2)">
<path fill-rule="evenodd" clip-rule="evenodd" d="M39.8414 41.4476L39.8414 44.4653L42.8591 44.4653L45.8767 44.4653L45.8767 41.4476L45.8767 38.4299L42.8591 38.4299L39.8414 38.4299L39.8414 41.4476ZM39.8414 41.4476C39.8414 39.781 41.1925 38.4299 42.8591 38.4299C44.5257 38.4299 45.8767 39.781 45.8767 41.4476C45.8767 43.1142 44.5257 44.4653 42.8591 44.4653C41.1925 44.4653 39.8414 43.1142 39.8414 41.4476Z" fill="#181818"/>
</g>
<g clip-path="url(#clip4_4_2)">
<path fill-rule="evenodd" clip-rule="evenodd" d="M39.8414 47.4829L39.8414 44.4653L36.8238 44.4653L33.8061 44.4653L33.8061 47.4829L33.8061 50.5006L36.8238 50.5006L39.8414 50.5006L39.8414 47.4829ZM39.8414 47.4829C39.8414 49.1495 38.4904 50.5006 36.8238 50.5006C35.1572 50.5006 33.8061 49.1495 33.8061 47.4829C33.8061 45.8163 35.1572 44.4653 36.8238 44.4653C38.4904 44.4653 39.8414 45.8163 39.8414 47.4829Z" fill="#181818"/>
</g>
<g clip-path="url(#clip5_4_2)">
<path fill-rule="evenodd" clip-rule="evenodd" d="M51.4808 44.4653H48.4632V47.4829V50.5006H51.4808H54.4985L54.4985 47.4829L54.4985 44.4653H51.4808ZM51.4808 44.4653C53.1474 44.4653 54.4985 45.8163 54.4985 47.4829C54.4985 49.1495 53.1474 50.5006 51.4808 50.5006C49.8142 50.5006 48.4632 49.1495 48.4632 47.4829C48.4632 45.8163 49.8142 44.4653 51.4808 44.4653Z" fill="#181818"/>
</g>
<defs>
<clipPath id="clip0_4_2">
<rect width="3.01766" height="3.01766" fill="white" transform="translate(31.2194 35.8437) rotate(-90)"/>
</clipPath>
<clipPath id="clip1_4_2">
<rect width="3.01766" height="3.01766" fill="white" transform="translate(57.0851 35.8437) rotate(180)"/>
</clipPath>
<clipPath id="clip2_4_2">
<rect width="3.01766" height="3.01766" fill="white" transform="translate(48.4632 44.4653) rotate(180)"/>
</clipPath>
<clipPath id="clip3_4_2">
<rect width="3.01766" height="3.01766" fill="white" transform="translate(39.8414 44.4653) rotate(-90)"/>
</clipPath>
<clipPath id="clip4_4_2">
<rect width="3.01766" height="3.01766" fill="white" transform="translate(39.8414 44.4653) rotate(90)"/>
</clipPath>
<clipPath id="clip5_4_2">
<rect width="3.01766" height="3.01766" fill="white" transform="translate(48.4632 44.4653)"/>
</clipPath>
</defs>
</svg>
