<svg width="44" height="35" viewBox="0 0 44 35" fill="none" xmlns="http://www.w3.org/2000/svg">
<path d="M-5.72205e-05 17.2437H5.60416C7.27077 17.2437 8.62182 18.5947 8.62182 20.2614V25.8656H-5.72205e-05V17.2437Z" fill="#CCCCCC"/>
<path d="M-5.72205e-05 8.62218H8.62182V14.2264C8.62182 15.893 7.27077 17.2441 5.60416 17.2441H-5.72205e-05V8.62218Z" fill="#CCCCCC"/>
<path d="M8.62179 8.62218H14.226C15.8926 8.62218 17.2437 9.97324 17.2437 11.6398V17.2441H11.6394C9.97284 17.2441 8.62179 15.893 8.62179 14.2264V8.62218Z" fill="#CCCCCC"/>
<path d="M17.2438 17.2437H25.8656V22.8479C25.8656 24.5145 24.5146 25.8656 22.848 25.8656H20.2614C18.5948 25.8656 17.2438 24.5145 17.2438 22.8479V17.2437Z" fill="#CCCCCC"/>
<path d="M25.8655 11.6398C25.8655 9.97324 27.2165 8.62218 28.8832 8.62218H34.4874V14.2264C34.4874 15.893 33.1363 17.2441 31.4697 17.2441H25.8655V11.6398Z" fill="#CCCCCC"/>
<path d="M34.4875 2.80233C34.4875 1.25477 35.742 0.000221252 37.2896 0.000221252H40.0917C41.7583 0.000221252 43.1093 1.35127 43.1093 3.01788V8.6221H34.4875V2.80233Z" fill="#CCCCCC"/>
<path d="M34.4875 8.62218H43.1093V17.2441H38.7984C36.4175 17.2441 34.4875 15.314 34.4875 12.9331V8.62218Z" fill="#CCCCCC"/>
<path d="M34.4875 21.5546C34.4875 19.1738 36.4175 17.2437 38.7984 17.2437H43.1093V25.8656H34.4875V21.5546Z" fill="#CCCCCC"/>
<path d="M34.4875 25.8657H43.1093V31.4699C43.1093 33.1365 41.7583 34.4875 40.0917 34.4875H37.5051C35.8385 34.4875 34.4875 33.1365 34.4875 31.4699V25.8657Z" fill="#CCCCCC"/>
<path d="M0 3.01766C0 1.35105 1.35105 0 3.01766 0H5.60422C7.27082 0 8.62188 1.35105 8.62188 3.01766V8.62188H0V3.01766Z" fill="#CCCCCC"/>
<path d="M-5.72205e-05 25.8657H8.62182V31.4699C8.62182 33.1365 7.27077 34.4875 5.60416 34.4875H3.0176C1.35099 34.4875 -5.72205e-05 33.1365 -5.72205e-05 31.4699V25.8657Z" fill="#CCCCCC"/>
<g clip-path="url(#clip0_4_40)">
<path fill-rule="evenodd" clip-rule="evenodd" d="M8.62179 5.60453L8.62179 8.62218L11.6394 8.62218L14.6571 8.62218L14.6571 5.60453L14.6571 2.58687L11.6394 2.58687L8.62179 2.58687L8.62179 5.60453ZM8.62179 5.60453C8.62179 3.93792 9.97284 2.58687 11.6394 2.58687C13.3061 2.58687 14.6571 3.93792 14.6571 5.60453C14.6571 7.27113 13.3061 8.62218 11.6394 8.62218C9.97284 8.62218 8.62179 7.27113 8.62179 5.60453Z" fill="#CCCCCC"/>
</g>
<g clip-path="url(#clip1_4_40)">
<path fill-rule="evenodd" clip-rule="evenodd" d="M31.4698 8.62219L34.4875 8.62218L34.4875 5.60453L34.4875 2.58687L31.4698 2.58687L28.4521 2.58687L28.4521 5.60453L28.4521 8.62219L31.4698 8.62219ZM31.4698 8.62219C29.8032 8.62219 28.4521 7.27113 28.4521 5.60453C28.4521 3.93792 29.8032 2.58687 31.4698 2.58687C33.1364 2.58687 34.4875 3.93792 34.4875 5.60453C34.4875 7.27113 33.1364 8.62218 31.4698 8.62219Z" fill="#CCCCCC"/>
</g>
<g clip-path="url(#clip2_4_40)">
<path fill-rule="evenodd" clip-rule="evenodd" d="M22.8478 17.2437L25.8655 17.2437L25.8655 14.226L25.8655 11.2084L22.8478 11.2084L19.8302 11.2084L19.8302 14.226L19.8302 17.2437L22.8478 17.2437ZM22.8478 17.2437C21.1812 17.2437 19.8302 15.8926 19.8302 14.226C19.8302 12.5594 21.1812 11.2084 22.8478 11.2084C24.5144 11.2084 25.8655 12.5594 25.8655 14.226C25.8655 15.8926 24.5144 17.2437 22.8478 17.2437Z" fill="#CCCCCC"/>
</g>
<g clip-path="url(#clip3_4_40)">
<path fill-rule="evenodd" clip-rule="evenodd" d="M17.2438 14.226L17.2438 17.2437L20.2614 17.2437L23.2791 17.2437L23.2791 14.226L23.2791 11.2084L20.2614 11.2084L17.2438 11.2084L17.2438 14.226ZM17.2438 14.226C17.2438 12.5594 18.5948 11.2084 20.2614 11.2084C21.928 11.2084 23.2791 12.5594 23.2791 14.226C23.2791 15.8926 21.928 17.2437 20.2614 17.2437C18.5948 17.2437 17.2438 15.8926 17.2438 14.226Z" fill="#CCCCCC"/>
</g>
<g clip-path="url(#clip4_4_40)">
<path fill-rule="evenodd" clip-rule="evenodd" d="M17.2438 20.2614L17.2438 17.2437L14.2261 17.2437L11.2084 17.2437L11.2084 20.2614L11.2084 23.279L14.2261 23.279L17.2438 23.279L17.2438 20.2614ZM17.2438 20.2614C17.2438 21.928 15.8927 23.279 14.2261 23.279C12.5595 23.279 11.2084 21.928 11.2084 20.2614C11.2084 18.5947 12.5595 17.2437 14.2261 17.2437C15.8927 17.2437 17.2438 18.5947 17.2438 20.2614Z" fill="#CCCCCC"/>
</g>
<g clip-path="url(#clip5_4_40)">
<path fill-rule="evenodd" clip-rule="evenodd" d="M28.8832 17.2437H25.8655V20.2614V23.279H28.8832H31.9008V20.2614V17.2437H28.8832ZM28.8832 17.2437C30.5498 17.2437 31.9008 18.5947 31.9008 20.2614C31.9008 21.928 30.5498 23.279 28.8832 23.279C27.2165 23.279 25.8655 21.928 25.8655 20.2614C25.8655 18.5947 27.2165 17.2437 28.8832 17.2437Z" fill="#CCCCCC"/>
</g>
<defs>
<clipPath id="clip0_4_40">
<rect width="3.01766" height="3.01766" fill="white" transform="translate(8.62179 8.62218) rotate(-90)"/>
</clipPath>
<clipPath id="clip1_4_40">
<rect width="3.01766" height="3.01766" fill="white" transform="translate(34.4875 8.62218) rotate(180)"/>
</clipPath>
<clipPath id="clip2_4_40">
<rect width="3.01766" height="3.01766" fill="white" transform="translate(25.8655 17.2437) rotate(180)"/>
</clipPath>
<clipPath id="clip3_4_40">
<rect width="3.01766" height="3.01766" fill="white" transform="translate(17.2438 17.2437) rotate(-90)"/>
</clipPath>
<clipPath id="clip4_4_40">
<rect width="3.01766" height="3.01766" fill="white" transform="translate(17.2438 17.2437) rotate(90)"/>
</clipPath>
<clipPath id="clip5_4_40">
<rect width="3.01766" height="3.01766" fill="white" transform="translate(25.8655 17.2437)"/>
</clipPath>
</defs>
</svg>
