<svg width="98" height="17" viewBox="0 0 98 17" fill="none" xmlns="http://www.w3.org/2000/svg">
<path d="M9 16.5L11.4483 10.9483L17 8.5L11.4513 6.05175L9.00154 0.5L6.55174 6.05175L1 8.5L6.55174 10.9483L9 16.5Z" fill="#ED513F" stroke="#ED513F" stroke-width="1.5" stroke-linecap="round" stroke-linejoin="bevel"/>
<path d="M29 16.5L31.4483 10.9483L37 8.5L31.4513 6.05175L29.0015 0.5L26.5517 6.05175L21 8.5L26.5517 10.9483L29 16.5Z" fill="#ED513F" stroke="#ED513F" stroke-width="1.5" stroke-linecap="round" stroke-linejoin="bevel"/>
<path d="M49 16.5L51.4483 10.9483L57 8.5L51.4513 6.05175L49.0015 0.5L46.5517 6.05175L41 8.5L46.5517 10.9483L49 16.5Z" fill="#ED513F" stroke="#ED513F" stroke-width="1.5" stroke-linecap="round" stroke-linejoin="bevel"/>
<path d="M69 16.5L71.4483 10.9483L77 8.5L71.4513 6.05175L69.0015 0.5L66.5517 6.05175L61 8.5L66.5517 10.9483L69 16.5Z" fill="#ED513F" stroke="#ED513F" stroke-width="1.5" stroke-linecap="round" stroke-linejoin="bevel"/>
<path d="M89 16.5L91.4483 10.9483L97 8.5L91.4513 6.05175L89.0015 0.5L86.5517 6.05175L81 8.5L86.5517 10.9483L89 16.5Z" fill="#ED513F" stroke="#ED513F" stroke-width="1.5" stroke-linecap="round" stroke-linejoin="bevel"/>
</svg>
